<svg width="66" height="66" viewBox="0 0 66 66" fill="none" xmlns="http://www.w3.org/2000/svg">
<circle cx="33" cy="33" r="33" fill="#E3E3E3"/>
<path d="M49.919 35.3766C49.5419 31.7075 47.8474 28.2484 45.1473 25.6364C42.8399 23.4045 40.0157 21.9701 37.044 21.3324V19.3161C38.2578 19.024 39.16 17.9613 39.16 16.698C39.16 15.2103 37.9088 14 36.3709 14H30.4645C28.9266 14 27.6754 15.2103 27.6754 16.698C27.6754 17.9612 28.5776 19.024 29.7913 19.3161V21.338C26.8287 21.9785 24.0138 23.4108 21.713 25.6365C21.2094 26.1236 20.7451 26.6346 20.3201 27.1656C20.2995 27.1641 20.2789 27.1626 20.2579 27.1626H14.4122C13.9592 27.1626 13.5919 27.5178 13.5919 27.9561C13.5919 28.3944 13.9592 28.7496 14.4122 28.7496H19.2039C18.6025 29.7237 18.1175 30.7467 17.7483 31.7997H8.82032C8.36734 31.7997 8 32.155 8 32.5932C8 33.0315 8.36734 33.3868 8.82032 33.3868H17.2848C17.0483 34.3907 16.9127 35.4123 16.8776 36.4369H13.2501C12.7971 36.4369 12.4298 36.7922 12.4298 37.2304C12.4298 37.6687 12.7971 38.024 13.2501 38.024H16.9038C16.973 39.0511 17.1438 40.0729 17.416 41.0741H12.1016C11.6486 41.0741 11.2813 41.4293 11.2813 41.8676C11.2813 42.3059 11.6486 42.6612 12.1016 42.6612H17.9395C18.7443 44.7205 20.0019 46.6506 21.713 48.3057C24.4156 50.9201 27.9952 52.5597 31.7921 52.9226C32.334 52.9744 32.8764 53 33.4179 53C36.619 53 39.7794 52.1039 42.461 50.4146C42.8407 50.1754 42.9481 49.6838 42.7008 49.3166C42.4536 48.9493 41.9454 48.8454 41.5657 49.0846C35.6957 52.7823 27.8343 51.9828 22.8731 47.1835C17.0519 41.5524 17.0519 32.39 22.8731 26.7588C28.6942 21.1278 38.1659 21.1278 43.9872 26.7588C48.9418 31.5518 49.7728 39.15 45.963 44.8255C45.7162 45.1931 45.8243 45.6846 46.2042 45.9232C46.5843 46.1619 47.0923 46.0574 47.3389 45.6898C49.3745 42.6573 50.2908 38.9948 49.919 35.3766ZM29.3161 16.6981C29.3161 16.0855 29.8312 15.5872 30.4645 15.5872H36.3709C37.0041 15.5872 37.5193 16.0855 37.5193 16.6981C37.5193 17.3107 37.0041 17.8091 36.3709 17.8091H30.4645C29.8312 17.8091 29.3161 17.3106 29.3161 16.6981ZM31.4319 21.0652V19.3961H35.4034V21.0623C34.0846 20.9106 32.7504 20.9116 31.4319 21.0652Z" fill="#A6A6A6"/>
<path d="M44.5676 46.9507C44.351 46.9507 44.1402 47.0356 43.9877 47.1832C43.8343 47.3308 43.7473 47.5355 43.7473 47.7442C43.7473 47.9529 43.8343 48.1577 43.9877 48.3053C44.1402 48.4537 44.3511 48.5378 44.5676 48.5378C44.7833 48.5378 44.9942 48.4537 45.1476 48.3053C45.3001 48.1577 45.3879 47.9529 45.3879 47.7442C45.3879 47.5355 45.3002 47.3308 45.1476 47.1832C44.9942 47.0356 44.7833 46.9507 44.5676 46.9507Z" fill="#A6A6A6"/>
<path d="M33.4302 24.661C26.4133 24.661 20.7045 30.1832 20.7045 36.971C20.7045 43.7589 26.4133 49.2811 33.4302 49.2811C40.447 49.2811 46.1558 43.7589 46.1558 36.971C46.1558 30.1832 40.447 24.661 33.4302 24.661ZM33.4302 47.694C27.3178 47.694 22.3452 42.8837 22.3452 36.971C22.3452 31.0584 27.3178 26.248 33.4302 26.248C39.5425 26.248 44.5151 31.0584 44.5151 36.971C44.5151 42.8837 39.5425 47.694 33.4302 47.694Z" fill="#A6A6A6"/>
<path d="M38.6192 30.8292L34.5561 34.7595C34.2164 34.597 33.8342 34.5052 33.4302 34.5052C33.0261 34.5052 32.644 34.597 32.3042 34.7595L30.4858 33.0005C30.1653 32.6906 29.6461 32.6906 29.3256 33.0005C29.0052 33.3104 29.0052 33.8128 29.3256 34.1227L31.144 35.8817C30.9759 36.2104 30.8811 36.5801 30.8811 36.9709C30.8811 38.3306 32.0245 39.4368 33.4302 39.4368C34.8358 39.4368 35.9792 38.3306 35.9792 36.9709C35.9792 36.5801 35.8843 36.2104 35.7163 35.8817L39.7793 31.9514C40.0996 31.6415 40.0996 31.1391 39.7793 30.8292C39.459 30.5193 38.9397 30.5193 38.6192 30.8292ZM33.4302 37.8498C32.9293 37.8498 32.5217 37.4556 32.5217 36.971C32.5217 36.4865 32.9293 36.0923 33.4302 36.0923C33.931 36.0923 34.3386 36.4865 34.3386 36.971C34.3386 37.4556 33.931 37.8498 33.4302 37.8498Z" fill="#A6A6A6"/>
<path d="M42.201 36.1872H41.4409C40.988 36.1872 40.6206 36.5424 40.6206 36.9807C40.6206 37.419 40.988 37.7742 41.4409 37.7742H42.201C42.6539 37.7742 43.0213 37.419 43.0213 36.9807C43.0213 36.5424 42.6539 36.1872 42.201 36.1872Z" fill="#A6A6A6"/>
<path d="M25.4192 36.1678H24.6593C24.2063 36.1678 23.839 36.5231 23.839 36.9613C23.839 37.3996 24.2063 37.7549 24.6593 37.7549H25.4192C25.8722 37.7549 26.2396 37.3996 26.2396 36.9613C26.2396 36.5231 25.8722 36.1678 25.4192 36.1678Z" fill="#A6A6A6"/>
<path d="M33.4401 30.0152C33.8931 30.0152 34.2605 29.66 34.2605 29.2217V28.4866C34.2605 28.0483 33.8931 27.6931 33.4401 27.6931C32.9872 27.6931 32.6198 28.0483 32.6198 28.4866V29.2217C32.6198 29.66 32.9872 30.0152 33.4401 30.0152Z" fill="#A6A6A6"/>
<path d="M33.4201 43.9268C32.9672 43.9268 32.5998 44.282 32.5998 44.7203V45.4554C32.5998 45.8937 32.9672 46.249 33.4201 46.249C33.8731 46.249 34.2404 45.8937 34.2404 45.4554V44.7203C34.2404 44.282 33.8731 43.9268 33.4201 43.9268Z" fill="#A6A6A6"/>
<path d="M8.82031 41.0738C8.60457 41.0738 8.39293 41.1587 8.24035 41.3063C8.08777 41.4539 8 41.6586 8 41.8673C8 42.0768 8.08769 42.2807 8.24035 42.4283C8.39301 42.5759 8.60457 42.6608 8.82031 42.6608C9.03605 42.6608 9.24769 42.5759 9.40019 42.4283C9.55277 42.2807 9.64062 42.076 9.64062 41.8673C9.64062 41.6586 9.55285 41.4539 9.40019 41.3063C9.24769 41.1587 9.03605 41.0738 8.82031 41.0738Z" fill="#A6A6A6"/>
</svg>
