<svg width="66" height="66" viewBox="0 0 66 66" fill="none" xmlns="http://www.w3.org/2000/svg">
<circle cx="33" cy="33" r="33" fill="#E3E3E3"/>
<path fill-rule="evenodd" clip-rule="evenodd" d="M26.4636 45.3817C26.1843 45.3817 25.9584 45.6095 25.9584 45.8889H25.9584V51.062C25.9584 51.3413 26.1841 51.5672 26.4636 51.5672C26.5554 51.5672 26.6396 51.5441 26.7142 51.5021L28.8635 50.5203L31.0509 51.5212C31.1907 51.5844 31.3438 51.5786 31.472 51.5193L33.6595 50.5203L35.8489 51.5212C35.9886 51.5844 36.1398 51.5786 36.2699 51.5193L38.4574 50.5203L40.6468 51.5212C40.7865 51.5844 40.9377 51.5786 41.0659 51.5193L43.2553 50.5203L45.4447 51.5212C45.7797 51.6723 46.1605 51.4217 46.1605 51.0619V20.7453C46.1605 19.7118 45.7414 18.776 45.0639 18.0966C44.3864 17.4191 43.4487 17 42.4152 17H23.2255C22.1901 17 21.2543 17.4191 20.5768 18.0967C19.8974 18.776 19.4782 19.7118 19.4782 20.7453V22.5176C19.4782 22.7988 19.706 23.0247 19.9855 23.0247C20.2648 23.0247 20.4907 22.7988 20.4907 22.5176V20.7453C20.4907 19.9913 20.7969 19.308 21.2925 18.8142C21.7863 18.3186 22.4695 18.0124 23.2255 18.0124C23.9795 18.0124 24.6627 18.3186 25.1565 18.8142C25.6522 19.3081 25.9584 19.9913 25.9584 20.7453V38.3504H19.308C19.3227 38.3356 19.3375 38.3213 19.3523 38.307C19.3662 38.2936 19.3802 38.2801 19.394 38.2662C20.0715 37.5887 20.4907 36.651 20.4907 35.6175V24.8121C20.4907 24.5327 20.2648 24.3049 19.9855 24.3049C19.706 24.3049 19.4782 24.5327 19.4782 24.8121V27.6752H13.5072C13.2277 27.6752 13 27.9011 13 28.1823V30.7526C13 31.032 13.2277 31.2598 13.5072 31.2598C13.7866 31.2598 14.0124 31.032 14.0124 30.7526V28.6876H19.4783V35.6175C19.4783 36.3715 19.1721 37.0548 18.6783 37.5505C18.1845 38.0443 17.5014 38.3505 16.7454 38.3505C15.9913 38.3505 15.3082 38.0442 14.8144 37.5505C14.3188 37.0548 14.0125 36.3715 14.0125 35.6175V33.0473C14.0125 32.766 13.7867 32.5401 13.5072 32.5401C13.2278 32.5401 13.0001 32.766 13.0001 33.0473V35.6175C13.0001 36.6509 13.4192 37.5887 14.0967 38.2662C14.7761 38.9437 15.7119 39.3628 16.7454 39.3628H25.9584V43.5942C25.9584 43.8737 26.1842 44.1014 26.4636 44.1014C26.7431 44.1014 26.9708 43.8737 26.9708 43.5942V20.7453C26.9708 19.7061 26.544 18.7243 25.7862 18.0124H42.4153C43.1694 18.0124 43.8525 18.3186 44.3482 18.8142C44.842 19.3081 45.1482 19.9913 45.1482 20.7453V50.2754L43.466 49.506C43.3377 49.4486 43.1846 49.4428 43.0468 49.506L40.8574 50.5069L38.668 49.506C38.5398 49.4486 38.3867 49.4428 38.2489 49.506L36.0595 50.5069L33.8701 49.506C33.7418 49.4486 33.5887 49.4428 33.4509 49.506L31.2616 50.5069L29.0722 49.506C28.944 49.4486 28.7908 49.4428 28.653 49.506L26.9708 50.2754V45.8889C26.9708 45.6095 26.743 45.3817 26.4636 45.3817ZM32.251 42.777H29.3018C29.0224 42.777 28.7947 43.0048 28.7946 43.2843V46.2334C28.7946 46.5128 29.0224 46.7386 29.3018 46.7386H32.251C32.5304 46.7386 32.7562 46.5129 32.7562 46.2334V43.2843C32.7562 43.0048 32.5304 42.777 32.251 42.777ZM29.8071 43.7895H31.7438V45.7263H29.8071V43.7895ZM32.251 37.5351H29.3018C29.0224 37.5351 28.7947 37.761 28.7946 38.0404V40.9895C28.7946 41.269 29.0224 41.4967 29.3018 41.4967H32.251C32.5304 41.4967 32.7562 41.269 32.7562 40.9895V38.0404C32.7562 37.761 32.5304 37.5351 32.251 37.5351ZM29.8071 38.5476H31.7438V40.4843H29.8071V38.5476ZM32.251 32.2913H29.3018C29.0224 32.2913 28.7947 32.519 28.7946 32.7985V35.7477C28.7946 36.0271 29.0224 36.2529 29.3018 36.2529H32.251C32.5304 36.2529 32.7562 36.0271 32.7562 35.7477V32.7985C32.7562 32.519 32.5304 32.2913 32.251 32.2913ZM29.8071 33.3037H31.7438V35.2405H29.8071V33.3037ZM33.6864 45.6764C33.6864 45.9558 33.9122 46.1817 34.1916 46.1817H41.5827C41.8622 46.1817 42.0899 45.9559 42.0899 45.6764C42.0899 45.397 41.8622 45.1693 41.5827 45.1693H34.1916C33.9122 45.1693 33.6864 45.397 33.6864 45.6764ZM33.6864 43.8411C33.6864 44.1206 33.9122 44.3483 34.1916 44.3483H43.2209C43.5004 44.3483 43.7281 44.1206 43.7281 43.8411C43.7281 43.5617 43.5004 43.334 43.2209 43.334H34.1916C33.9122 43.334 33.6864 43.5617 33.6864 43.8411ZM33.6864 40.4326C33.6864 40.7121 33.9122 40.9398 34.1916 40.9398H41.5827C41.8622 40.9398 42.0899 40.7121 42.0899 40.4326C42.0899 40.1532 41.8622 39.9274 41.5827 39.9274H34.1916C33.9122 39.9274 33.6864 40.1532 33.6864 40.4326ZM33.6864 38.5972C33.6864 38.8786 33.9122 39.1044 34.1916 39.1044H43.2209C43.5004 39.1044 43.7281 38.8786 43.7281 38.5972C43.7281 38.3179 43.5004 38.092 43.2209 38.092H34.1916C33.9122 38.092 33.6864 38.3178 33.6864 38.5972ZM33.6864 35.1908C33.6864 35.4701 33.9122 35.696 34.1916 35.696H41.5827C41.8622 35.696 42.0899 35.4701 42.0899 35.1908C42.0899 34.9113 41.8622 34.6835 41.5827 34.6835H34.1916C33.9122 34.6835 33.6864 34.9113 33.6864 35.1908ZM33.6864 33.3554C33.6864 33.6348 33.9122 33.8606 34.1916 33.8606H43.2209C43.5004 33.8606 43.7281 33.6348 43.7281 33.3554C43.7281 33.076 43.5004 32.8482 43.2209 32.8482H34.1916C33.9122 32.8482 33.6864 33.076 33.6864 33.3554ZM34.9969 30.2974H36.1154L36.1768 30.0924C36.2836 29.7373 36.3904 29.382 36.4969 29.0269C36.657 28.4945 36.8168 27.9622 36.9765 27.4298L36.977 27.4283C37.0227 27.4249 37.0682 27.4212 37.1136 27.4172C37.8647 27.3437 38.5814 27.1744 39.2532 26.8502C40.2443 26.3591 41.2606 25.4596 41.3239 24.3627C41.4316 22.4995 39.1157 22.0373 37.5433 22.0002C36.0694 21.9929 34.3926 22.1515 32.9374 22.374C32.8581 22.5484 32.783 22.7326 32.709 22.9143C32.6786 22.9887 32.6484 23.0627 32.6182 23.1355C32.6568 23.131 32.6954 23.1264 32.734 23.1218C33.6269 23.016 34.5201 22.9102 35.419 22.8579C35.4828 22.8542 35.5501 22.8502 35.6204 22.8459C36.6111 22.7863 38.2022 22.6905 39.0185 22.9518L39.0614 22.9688C39.4294 23.1271 39.6904 23.2995 39.9021 23.6263C41.0488 25.3963 38.6602 26.2949 37.2066 26.6647L38.3045 23.0092H37.1863L36.0175 26.8996L35.9549 26.9121L35.4951 26.9352L36.6744 23.0092H35.5562L33.3671 30.2974H34.4853L35.3069 27.5617L35.8315 27.5199L34.9969 30.2974Z" fill="#A6A6A6"/>
</svg>
