<svg width="66" height="66" viewBox="0 0 66 66" fill="none" xmlns="http://www.w3.org/2000/svg">
<circle cx="33" cy="33" r="33" fill="#FFD300"/>
<path d="M28.2 19.3571H27V20.5357H28.2V19.3571Z" fill="black"/>
<path d="M39 19.3571H37.8V20.5357H39V19.3571Z" fill="black"/>
<path d="M50.4 45.2857H49.8V24.0714C49.8 22.7696 48.7255 21.7143 47.4 21.7143H41.4V17.5893C41.4 17.2639 41.1314 17 40.8 17H25.2C24.8687 17 24.6 17.2639 24.6 17.5893V21.7143H18.6C17.2745 21.7143 16.2 22.7696 16.2 24.0714V45.2857H15.6C15.2686 45.2857 15 45.5496 15 45.875V47.6429C15 48.9447 16.0745 50 17.4 50H48.6C49.9255 50 51 48.9447 51 47.6429V45.875C51 45.5496 50.7313 45.2857 50.4 45.2857ZM25.8 18.1786H40.2V33.5H39V22.3036C39 21.9781 38.7314 21.7143 38.4 21.7143H36.6V19.9464C36.6 19.621 36.3314 19.3571 36 19.3571H30C29.6687 19.3571 29.4 19.621 29.4 19.9464V21.7143H27.6C27.2687 21.7143 27 21.9781 27 22.3036V33.5H25.8V18.1786ZM32.403 31.1988C31.2224 31.4343 30.2997 32.3405 30.06 33.5H28.2V22.8929H30C30.3314 22.8929 30.6 22.629 30.6 22.3036V20.5357H35.4V22.3036C35.4 22.629 35.6687 22.8929 36 22.8929H37.8V33.5H35.94C35.6103 31.9052 34.0268 30.875 32.403 31.1988ZM34.6896 33.5H31.3104C31.6355 32.5835 32.6555 32.0994 33.5886 32.4187C34.1045 32.5952 34.5099 32.9934 34.6896 33.5ZM43.8 34.6786V33.5H41.4V25.8393H45.6V41.75H20.4V25.8393H24.6V33.5H22.2V34.6786H43.8ZM17.4 24.0714C17.4 23.4205 17.9372 22.8929 18.6 22.8929H24.6V24.6607H19.8C19.4687 24.6607 19.2 24.9246 19.2 25.25V42.3393C19.2 42.6647 19.4687 42.9286 19.8 42.9286H46.2C46.5314 42.9286 46.8 42.6647 46.8 42.3393V25.25C46.8 24.9246 46.5314 24.6607 46.2 24.6607H41.4V22.8929H47.4C48.0628 22.8929 48.6 23.4205 48.6 24.0714V45.2857H38.4C38.2409 45.2857 38.0883 45.3479 37.9758 45.4584L36.9516 46.4643H29.0484L28.0242 45.4584C27.9117 45.3479 27.7592 45.2857 27.6 45.2857H17.4V24.0714ZM49.8 47.6429C49.8 48.2938 49.2628 48.8214 48.6 48.8214H17.4C16.7372 48.8214 16.2 48.2938 16.2 47.6429V46.4643H27.3516L28.3758 47.4702C28.4883 47.5807 28.6409 47.6429 28.8 47.6429H37.2C37.3592 47.6429 37.5117 47.5807 37.6242 47.4702L38.6484 46.4643H49.8V47.6429Z" fill="black"/>
<path d="M33.6 44.1071H32.4V45.2857H33.6V44.1071Z" fill="black"/>
<path d="M27.6 36.4464H26.4V37.625H27.6V36.4464Z" fill="black"/>
<path d="M42 36.4464H28.8V37.625H42V36.4464Z" fill="black"/>
<path d="M39.6 38.8036H24V39.9821H39.6V38.8036Z" fill="black"/>
</svg>
