<svg width="66" height="66" viewBox="0 0 66 66" fill="none" xmlns="http://www.w3.org/2000/svg">
<circle cx="33" cy="33" r="33" fill="#FFD300"/>
<path fill-rule="evenodd" clip-rule="evenodd" d="M34.5587 10.6397V16.717C34.5587 17.0703 34.2669 17.3567 33.907 17.3567C33.5472 17.3567 33.2554 17.0703 33.2554 16.717V10.6397C33.2554 10.2864 33.5472 10 33.907 10C34.2669 10 34.5587 10.2864 34.5587 10.6397ZM24.4578 27.792C24.4578 32.9153 28.6883 37.0685 33.907 37.0685C39.1258 37.0685 43.3563 32.9153 43.3563 27.792C43.3563 22.6687 39.1258 18.5156 33.907 18.5156C28.6908 18.5212 24.4638 22.6712 24.4578 27.792ZM33.907 19.795C38.4061 19.795 42.0531 23.3752 42.0531 27.792C42.0531 32.2088 38.4061 35.7891 33.907 35.7891C29.408 35.7891 25.761 32.2088 25.761 27.792C25.7661 23.3774 29.4102 19.8 33.907 19.795ZM46.5687 38.6456L41.4641 41.0133C40.7594 39.7263 39.4074 38.9073 37.9196 38.8661L33.2074 38.739C32.4612 38.7181 31.7291 38.5325 31.0657 38.1961L30.5862 37.9521C28.1311 36.6958 25.2049 36.699 22.7523 37.9603L22.7822 36.8939C22.7921 36.5406 22.5086 36.2463 22.1487 36.2367L16.9815 36.097C16.6217 36.0874 16.3222 36.3657 16.3124 36.7189L16.0002 47.8508C15.9904 48.2041 16.2739 48.4984 16.6337 48.508L21.801 48.6477H21.8188C22.172 48.6477 22.4609 48.3718 22.4704 48.0254L22.4854 47.4929L23.8278 46.7872C24.3547 46.5089 24.9707 46.4427 25.5463 46.6026L33.5625 48.8113C33.5678 48.8129 33.5732 48.8143 33.5785 48.8156L33.596 48.8197L33.6048 48.8216C34.1842 48.9407 34.7747 49.0003 35.3665 49C36.6202 49.0006 37.8591 48.7354 38.9986 48.2219C39.0266 48.2094 39.0536 48.1947 39.0794 48.1782L50.7021 40.7977C50.9917 40.6138 51.0852 40.2405 50.9156 39.9456C50.0527 38.4425 48.1389 37.87 46.5687 38.6456ZM17.321 47.2467L17.5972 37.3936L21.4615 37.498L21.1853 47.3514L17.321 47.2467ZM38.4115 47.0793C36.9959 47.7065 35.4149 47.8796 33.8934 47.5744L25.8988 45.3713C24.999 45.1217 24.0359 45.2251 23.2127 45.6596L22.5267 46.0204L22.7103 39.4693C24.8841 38.0499 27.672 37.904 29.9871 39.0882L30.4666 39.3322C31.3047 39.757 32.229 39.9912 33.1717 40.0181L37.8843 40.1452C39.2079 40.1827 40.332 41.1079 40.6006 42.3811L33.5812 42.1909C33.2214 42.1812 32.922 42.4598 32.9118 42.8128C32.9019 43.1661 33.1857 43.4603 33.5453 43.47L41.2917 43.6793H41.3098C41.6627 43.679 41.9513 43.4031 41.9608 43.057C41.9688 42.779 41.9478 42.5007 41.8978 42.2271L47.1334 39.7985L47.1393 39.7959L47.1487 39.7913C47.8913 39.4224 48.7892 39.5458 49.4001 40.1009L38.4115 47.0793ZM39.4459 16.717V13.8383C39.4459 13.485 39.1541 13.1986 38.7943 13.1986C38.4344 13.1986 38.1426 13.485 38.1426 13.8383V16.717C38.1426 17.0703 38.4344 17.3567 38.7943 17.3567C39.1541 17.3567 39.4459 17.0703 39.4459 16.717ZM29.6715 13.8383V16.717C29.6715 17.0703 29.3797 17.3567 29.0198 17.3567C28.66 17.3567 28.3682 17.0703 28.3682 16.717V13.8383C28.3682 13.485 28.66 13.1986 29.0198 13.1986C29.3797 13.1986 29.6715 13.485 29.6715 13.8383ZM32.4582 31.5347H33.614L33.6774 31.3238C33.7878 30.9586 33.8982 30.5931 34.0082 30.2279C34.1738 29.6797 34.339 29.1316 34.5043 28.5835C34.5516 28.58 34.5985 28.5762 34.6454 28.5722C35.4216 28.4966 36.1622 28.3224 36.8565 27.9889C37.8807 27.4838 38.9309 26.5585 38.9963 25.4303C39.1076 23.5138 36.7144 23.0383 35.0895 23.0003C33.5664 22.9927 31.8336 23.1558 30.3299 23.3847C30.248 23.5641 30.1704 23.7535 30.0938 23.9404C30.0625 24.017 30.0313 24.0931 30 24.168C30.0399 24.1633 30.0798 24.1586 30.1197 24.1539C31.0424 24.0451 31.9654 23.9363 32.8943 23.8825C32.9602 23.8786 33.0298 23.8745 33.1024 23.8701C34.1262 23.8088 35.7704 23.7102 36.6139 23.979L36.6583 23.9965C37.0386 24.1593 37.3082 24.3367 37.5271 24.6728C38.712 26.4934 36.2437 27.4178 34.7415 27.7981L35.8761 24.038H34.7206L33.5128 28.0398L33.4481 28.0526L32.9729 28.0764L34.1916 24.038H33.0361L30.7739 31.5347H31.9294L32.7785 28.7208L33.3206 28.6777L32.4582 31.5347Z" fill="black"/>
</svg>
