<svg width="66" height="66" viewBox="0 0 66 66" fill="none" xmlns="http://www.w3.org/2000/svg">
<circle cx="33" cy="33" r="33" fill="#E3E3E3"/>
<path d="M34.2604 40.8163H44.3905C44.7704 40.8163 45.0236 40.5714 45.0236 40.2041V34.6939C45.0236 34.3265 44.7704 34.0817 44.3905 34.0817H34.2604C33.8805 34.0817 33.6273 34.3265 33.6273 34.6939V40.2041C33.6272 40.5714 33.8805 40.8163 34.2604 40.8163ZM34.8935 35.3061H43.7574V39.5918H34.8935V35.3061Z" fill="#A6A6A6"/>
<path d="M17.1657 32.8571H22.2308C22.6107 32.8571 22.8639 32.6122 22.8639 32.2449C22.8639 31.8775 22.6107 31.6326 22.2308 31.6326H17.1657C16.7858 31.6326 16.5326 31.8775 16.5326 32.2449C16.5326 32.6122 16.7858 32.8571 17.1657 32.8571Z" fill="#A6A6A6"/>
<path d="M24.7633 32.8571H29.8284C30.2083 32.8571 30.4616 32.6122 30.4616 32.2449C30.4616 31.8775 30.2083 31.6326 29.8284 31.6326H24.7633C24.3834 31.6326 24.1302 31.8775 24.1302 32.2449C24.1302 32.6122 24.3834 32.8571 24.7633 32.8571Z" fill="#A6A6A6"/>
<path d="M17.1657 35.3061H25.3964C25.7763 35.3061 26.0296 35.0612 26.0296 34.6939C26.0296 34.3265 25.7763 34.0817 25.3964 34.0817H17.1657C16.7858 34.0817 16.5326 34.3265 16.5326 34.6939C16.5326 35.0612 16.7858 35.3061 17.1657 35.3061Z" fill="#A6A6A6"/>
<path d="M29.8284 34.0816H27.929C27.5491 34.0816 27.2958 34.3265 27.2958 34.6938C27.2958 35.0612 27.5491 35.306 27.929 35.306H29.8284C30.2082 35.306 30.4615 35.0612 30.4615 34.6938C30.4615 34.3265 30.2082 34.0816 29.8284 34.0816Z" fill="#A6A6A6"/>
<path d="M51.4183 26.4898C50.9751 25.9388 50.4053 25.6326 49.7088 25.5714L48.1893 25.3933V22.449C48.1893 21.102 47.0497 20 45.6568 20H16.5325C15.1396 19.9999 14 21.102 14 22.449V42.0408C14 43.1467 14.7684 44.0869 15.8143 44.3883C15.7824 45.6268 16.7515 46.702 18.0521 46.8163L47.303 50C47.3663 50 47.4929 50 47.5562 50C48.8225 50 49.9622 49.0816 50.0887 47.9184L51.9881 28.2653C52.0514 27.653 51.8615 26.9795 51.4183 26.4898ZM15.2663 24.2857H46.9231V27.9592H15.2663V24.2857ZM16.5325 21.2244H45.6567C46.3532 21.2244 46.923 21.7755 46.923 22.449V23.0612H15.2663V22.449C15.2663 21.7755 15.8361 21.2244 16.5325 21.2244ZM15.2663 42.0408V29.1836H46.9231V42.0408C46.9231 42.7143 46.3533 43.2653 45.6568 43.2653H16.5326C15.8361 43.2653 15.2663 42.7143 15.2663 42.0408ZM50.7218 28.0204L48.8224 47.6734C48.7591 48.3469 48.126 48.8367 47.4296 48.7755L18.242 45.5918C17.6089 45.5306 17.1656 45.0408 17.1023 44.4898H45.6567C47.0496 44.4898 48.1893 43.3877 48.1893 42.0408V26.551L49.6455 26.6734C49.9621 26.6734 50.2786 26.8571 50.4685 27.102C50.6586 27.3469 50.7852 27.7142 50.7218 28.0204Z" fill="#A6A6A6"/>
</svg>
