<svg width="66" height="66" viewBox="0 0 66 66" fill="none" xmlns="http://www.w3.org/2000/svg">
<circle cx="33" cy="33" r="33" fill="#FFD300"/>
<path d="M46.7695 18.3979L16.0429 21.4219C13.8145 21.6412 12.1786 23.6343 12.3979 25.8628L14.1487 43.6519C14.368 45.8803 16.3611 47.5162 18.5895 47.2969L49.316 44.2728C51.5444 44.0535 53.1803 42.0605 52.961 39.832L51.2102 22.043C50.991 19.8144 48.9979 18.1785 46.7695 18.3979ZM51.3439 39.9911C51.4756 41.3285 50.4943 42.524 49.1569 42.6556L18.4304 45.6797C17.0929 45.8113 15.8975 44.8301 15.7658 43.4926L14.0151 25.7037C13.8834 24.3662 14.8647 23.1708 16.2021 23.0392L46.9286 20.0151C48.266 19.8835 49.4614 20.8647 49.5931 22.2021L51.3438 39.9911L51.3439 39.9911Z" fill="black"/>
<path d="M50.4813 22.9311L13.2861 26.5918C12.8398 26.6357 12.5131 27.0336 12.5571 27.48L13.0346 32.3315C13.0785 32.7779 13.4764 33.1045 13.9228 33.0606L51.118 29.3999C51.5643 29.3559 51.891 28.958 51.847 28.5117L51.3695 23.6601C51.3255 23.2138 50.9276 22.8872 50.4813 22.9311ZM50.1502 27.8622L14.5721 31.3638L14.2538 28.1294L49.8318 24.6278L50.1501 27.8622L50.1502 27.8622Z" fill="black"/>
<path d="M28.9549 36.4797L19.2518 37.4346C18.8054 37.4786 18.4788 37.8765 18.5228 38.3228C18.5667 38.7692 18.9646 39.0957 19.4109 39.0518L29.114 38.0968C29.5604 38.0529 29.887 37.655 29.8431 37.2086C29.7992 36.7623 29.4012 36.4357 28.9549 36.4797Z" fill="black"/>
<path d="M29.2732 39.714L19.5701 40.669C19.1238 40.7129 18.7971 41.1108 18.8411 41.5572C18.885 42.0035 19.2829 42.3301 19.7293 42.2862L29.4324 41.3312C29.8787 41.2873 30.2053 40.8894 30.1614 40.443C30.1174 39.9967 29.7195 39.6701 29.2732 39.714Z" fill="black"/>
<path d="M44.9675 33.2708L43.3504 33.43C42.0129 33.5616 41.0317 34.7571 41.1633 36.0945L41.3225 37.7117C41.4541 39.0491 42.6496 40.0303 43.987 39.8987L45.6042 39.7395C46.9416 39.6079 47.9228 38.4125 47.7912 37.075L47.632 35.4579C47.5004 34.1205 46.305 33.1392 44.9675 33.2708ZM46.1741 37.2343C46.218 37.6806 45.8914 38.0785 45.445 38.1225L43.8279 38.2816C43.3815 38.3255 42.9836 37.9989 42.9397 37.5526L42.7805 35.9354C42.7366 35.4891 43.0632 35.0911 43.5095 35.0472L45.1267 34.8881C45.573 34.8441 45.971 35.1708 46.0149 35.6171L46.1741 37.2343Z" fill="black"/>
</svg>
