<svg width="66" height="66" viewBox="0 0 66 66" fill="none" xmlns="http://www.w3.org/2000/svg">
<circle cx="33" cy="33" r="33" fill="#FFD300"/>
<path d="M55.3064 23.9032H42.3226V18.8226C42.3226 17.2662 41.0564 16 39.5 16H24.8226C23.2662 16 22 17.2662 22 18.8226V48.1774C22 49.7338 23.2662 51 24.8226 51H39.5C41.0564 51 42.3226 49.7338 42.3226 48.1774V39.7097H41.1935V45.3548H23.129V21.6452H41.1935V23.9032H36.1129C35.1792 23.9032 34.4194 24.6631 34.4194 25.5968V33.8308L29.6695 38.5806H55.3064C56.2402 38.5806 57 37.8208 57 36.8871V25.5968C57 24.6631 56.2402 23.9032 55.3064 23.9032ZM41.1935 46.4839V48.1774C41.1935 49.1111 40.4337 49.871 39.5 49.871H24.8226C23.8889 49.871 23.129 49.1111 23.129 48.1774V46.4839H41.1935ZM23.129 20.5161V18.8226C23.129 17.8889 23.8889 17.129 24.8226 17.129H39.5C40.4337 17.129 41.1935 17.8889 41.1935 18.8226V20.5161H23.129ZM55.871 36.8871C55.871 37.1987 55.6181 37.4516 55.3064 37.4516H32.395L35.5484 34.2982V25.5968C35.5484 25.2852 35.8013 25.0323 36.1129 25.0323H55.3064C55.6181 25.0323 55.871 25.2852 55.871 25.5968V36.8871Z" fill="black"/>
<path d="M51.3548 30.6774C50.7322 30.6774 50.2258 30.171 50.2258 29.5484C50.2258 28.9257 50.7322 28.4194 51.3548 28.4194C51.9775 28.4194 52.4839 28.9257 52.4839 29.5484H53.6129C53.6129 28.3031 52.6002 27.2903 51.3548 27.2903C50.1095 27.2903 49.0968 28.3031 49.0968 29.5484C49.0968 30.7937 50.1095 31.8065 51.3548 31.8065C51.9775 31.8065 52.4839 32.3128 52.4839 32.9355C52.4839 33.5581 51.9775 34.0645 51.3548 34.0645C50.7322 34.0645 50.2258 33.5581 50.2258 32.9355H49.0968C49.0968 34.1808 50.1095 35.1935 51.3548 35.1935C52.6002 35.1935 53.6129 34.1808 53.6129 32.9355C53.6129 31.6902 52.6002 30.6774 51.3548 30.6774Z" fill="black"/>
<path d="M40.0645 30.6774C39.4419 30.6774 38.9355 30.171 38.9355 29.5484C38.9355 28.9257 39.4419 28.4194 40.0645 28.4194C40.6872 28.4194 41.1935 28.9257 41.1935 29.5484H42.3226C42.3226 28.3031 41.3098 27.2903 40.0645 27.2903C38.8192 27.2903 37.8065 28.3031 37.8065 29.5484C37.8065 30.7937 38.8192 31.8065 40.0645 31.8065C40.6872 31.8065 41.1935 32.3128 41.1935 32.9355C41.1935 33.5581 40.6872 34.0645 40.0645 34.0645C39.4419 34.0645 38.9355 33.5581 38.9355 32.9355H37.8065C37.8065 34.1808 38.8192 35.1935 40.0645 35.1935C41.3098 35.1935 42.3226 34.1808 42.3226 32.9355C42.3226 31.6902 41.3098 30.6774 40.0645 30.6774Z" fill="black"/>
<path d="M46.3978 27.2903L45.7097 30.0435L45.0215 27.2903H43.4516V34.629H44.5806V30.1823L45.7097 34.6985L46.8387 30.1823V34.629H47.9677V27.2903H46.3978Z" fill="black"/>
<path d="M34.4194 47.6129H29.9032V48.7419H34.4194V47.6129Z" fill="black"/>
<path d="M40.0645 39.7097H38.9355V40.8387H40.0645V39.7097Z" fill="black"/>
<path d="M37.8065 39.7097H36.6774V40.8387H37.8065V39.7097Z" fill="black"/>
<path d="M35.5484 39.7097H34.4194V40.8387H35.5484V39.7097Z" fill="black"/>
<path d="M33.2903 39.7097H32.1613V40.8387H33.2903V39.7097Z" fill="black"/>
</svg>
