<svg width="66" height="66" viewBox="0 0 66 66" fill="none" xmlns="http://www.w3.org/2000/svg">
<circle cx="33" cy="33" r="33" fill="#E3E3E3"/>
<path d="M54.9397 33.8048C54.9396 33.8046 54.9396 33.8045 54.9395 33.8043L46.8209 14.504C46.6486 14.0939 46.1576 13.8937 45.7245 14.0568C45.7242 14.0569 45.7239 14.057 45.7236 14.0572L12.7875 26.4742C12.6532 26.5291 12.5367 26.6168 12.4499 26.7283C12.176 26.8631 12.003 27.1298 12 27.422V48.2008C12 48.6422 12.3779 49 12.8441 49H48.2964C48.7626 49 49.1405 48.6422 49.1405 48.2008V36.8524L54.4685 34.8432C54.9015 34.6797 55.1124 34.2148 54.9397 33.8048ZM47.4523 47.4016H13.6882V28.2212H47.4523V47.4016ZM26.0838 26.6268L40.2175 21.2946C41.4789 22.55 43.2267 23.2634 45.0567 23.2702L46.4664 26.6268H26.0838ZM49.1405 35.1357V27.422C49.1405 26.9806 48.7626 26.6228 48.2964 26.6228H48.2829L46.4942 22.3695C46.4744 22.3341 46.4513 22.3003 46.425 22.2688C46.3345 21.8839 45.958 21.6213 45.5429 21.6535C43.8402 21.8004 42.1744 21.1213 41.1173 19.8489C40.8543 19.5415 40.3919 19.4651 40.0343 19.6699C39.9942 19.6744 39.9544 19.6814 39.9153 19.6907L22.6602 26.196C22.4514 26.2736 22.2843 26.4273 22.1968 26.6228H16.9566L45.5649 15.8378L53.0597 33.6556L49.1405 35.1357Z" fill="#A6A6A6"/>
<path d="M15.9791 42.0063C17.6179 42.465 18.9003 43.6776 19.3867 45.2286C19.4934 45.5672 19.8223 45.7992 20.1954 45.7993C20.2392 45.7967 20.2826 45.7905 20.3254 45.7809C20.3633 45.7911 20.402 45.7986 20.441 45.8033H40.6995C40.7343 45.799 40.7687 45.7923 40.8025 45.7833C41.2242 45.8804 41.6492 45.6355 41.7519 45.2362C41.7522 45.2347 41.7526 45.2333 41.7529 45.2318C42.2381 43.6792 43.5207 42.4649 45.1606 42.0055C45.5582 41.8904 45.8053 41.5152 45.7396 41.1264C45.7509 41.0877 45.759 41.0481 45.7641 41.0081V34.6147C45.7591 34.5746 45.7507 34.535 45.7388 34.4964C45.8049 34.1075 45.5577 33.7321 45.1597 33.6173C43.5198 33.158 42.2375 31.9432 41.7538 30.3902C41.6316 30.011 41.2314 29.7765 40.8185 29.8419C40.7795 29.8316 40.7397 29.8241 40.6995 29.8195H20.441C20.3985 29.8243 20.3564 29.8323 20.3153 29.8435C19.9047 29.7816 19.5086 30.0154 19.3867 30.3918C18.9013 31.9441 17.6188 33.158 15.9791 33.6173C15.5814 33.7324 15.3343 34.1076 15.4 34.4964C15.3891 34.5352 15.3812 34.5747 15.3764 34.6147V41.0081C15.3813 41.0457 15.3892 41.0829 15.4 41.1192C15.3308 41.5105 15.5785 41.8899 15.9791 42.0063ZM17.0646 34.9391C18.7596 34.2946 20.103 33.0227 20.7837 31.4179H40.3559C41.037 33.0227 42.3807 34.2946 44.0759 34.9391V40.6837C42.3815 41.3289 41.0383 42.6006 40.3568 44.2049H20.7837C20.1022 42.6006 18.759 41.3289 17.0646 40.6837V34.9391Z" fill="#A6A6A6"/>
<path d="M30.5702 42.6065C33.3674 42.6065 35.6349 40.4597 35.6349 37.8114C35.6349 35.1631 33.3674 33.0163 30.5702 33.0163C27.7731 33.0163 25.5056 35.1631 25.5056 37.8114C25.5084 40.4586 27.7743 42.6039 30.5702 42.6065ZM30.5702 34.6147C32.435 34.6147 33.9467 36.0459 33.9467 37.8114C33.9467 39.5769 32.435 41.0081 30.5702 41.0081C28.7055 41.0081 27.1938 39.5769 27.1938 37.8114C27.1938 36.0459 28.7055 34.6147 30.5702 34.6147Z" fill="#A6A6A6"/>
<path d="M21.2851 39.0102C21.9844 39.0102 22.5513 38.4734 22.5513 37.8114C22.5513 37.1494 21.9844 36.6126 21.2851 36.6126C20.5859 36.6126 20.019 37.1494 20.019 37.8114C20.019 38.4735 20.5859 39.0102 21.2851 39.0102ZM21.2851 37.4118C21.5182 37.4118 21.7072 37.5907 21.7072 37.8114C21.7072 38.0321 21.5182 38.211 21.2851 38.211C21.052 38.211 20.8631 38.0321 20.8631 37.8114C20.8631 37.5907 21.052 37.4118 21.2851 37.4118Z" fill="#A6A6A6"/>
<path d="M39.8554 39.0102C40.5546 39.0102 41.1215 38.4734 41.1215 37.8114C41.1215 37.1494 40.5546 36.6126 39.8554 36.6126C39.1561 36.6126 38.5892 37.1494 38.5892 37.8114C38.5892 38.4735 39.1561 39.0102 39.8554 39.0102ZM39.8554 37.4118C40.0885 37.4118 40.2774 37.5907 40.2774 37.8114C40.2774 38.0321 40.0885 38.211 39.8554 38.211C39.6223 38.211 39.4333 38.0321 39.4333 37.8114C39.4333 37.5907 39.6223 37.4118 39.8554 37.4118Z" fill="#A6A6A6"/>
</svg>
