<svg width="248" height="217" viewBox="0 0 248 217" fill="none" xmlns="http://www.w3.org/2000/svg">
<path d="M0.180401 99.2387C-3.31448 36.5867 44.8372 9.94503 69.3499 4.45566C138.519 -11.6465 149.805 30.4387 181.841 40.3195L182.842 40.628C214.392 50.3558 238.717 57.8555 246.642 89.7238C259.02 187.069 184.026 212.32 133.423 213.783C82.8197 215.247 4.549 177.554 0.180401 99.2387Z" fill="#E3F1FF"/>
<rect x="61.6079" y="23.4349" width="143.264" height="192.968" rx="12" fill="#7A7E86"/>
<rect x="70.3792" y="31.4752" width="125.721" height="176.887" fill="white"/>
<rect x="79.8813" y="51.2106" width="106.717" height="9.50219" fill="#E1E7EF"/>
<rect x="79.8813" y="125.766" width="106.717" height="9.50219" fill="#E1E7EF"/>
<rect x="79.8813" y="66.5602" width="62.1297" height="5.11656" fill="#E1E7EF"/>
<rect x="79.8813" y="145.502" width="106.717" height="9.50219" fill="#E1E7EF"/>
<rect x="79.8813" y="165.237" width="69.4391" height="9.50219" fill="#E1E7EF"/>
<rect x="79.8813" y="85.5646" width="106.717" height="29.9685" fill="#E1E7EF"/>
<path d="M91.5764 26.3184C91.5764 21.9001 95.1581 18.3184 99.5764 18.3184H166.903C171.322 18.3184 174.903 21.9001 174.903 26.3184V33.6681H91.5764V26.3184Z" fill="#FFE100"/>
<path d="M91.5764 30.7443H174.903V33.6681H91.5764V30.7443Z" fill="#FFC90A"/>
<path d="M214.374 25.3184C214.374 21.4524 217.508 18.3184 221.374 18.3184H221.993C225.859 18.3184 228.993 21.4524 228.993 25.3184V71.6768H214.374V25.3184Z" fill="#FFE100"/>
<path d="M226.8 22.704H228.262V71.6768H226.8V22.704Z" fill="#FFC90A"/>
<path d="M231.916 27.8206L231.916 29.2824L214.374 29.2824L214.374 27.8206L231.916 27.8206Z" fill="#7A7E86"/>
<path d="M230.455 28.5515L231.916 28.5515L231.916 63.6365L230.455 63.6365L230.455 28.5515Z" fill="#7A7E86"/>
<path d="M230.455 63.6365L231.916 63.6364L230.376 68.2592L228.993 67.7855L230.455 63.6365Z" fill="#7A7E86"/>
<rect x="215.836" y="71.6768" width="11.695" height="62.8606" fill="white"/>
<path d="M215.836 134.537H227.531L223.876 149.156H219.491L215.836 134.537Z" fill="#FFE100"/>
<path d="M219.49 149.156H223.876L221.683 159.389L219.49 149.156Z" fill="#7A7E86"/>
</svg>
