<svg width="150" height="36" viewBox="0 0 150 36" fill="none" xmlns="http://www.w3.org/2000/svg">
<path d="M15.8122 15.6184C15.8122 15.6184 14.7854 31.3287 20.2438 35.1422L22.2434 32.6446C22.2434 32.6446 15.7852 32.4566 15.8122 15.6184Z" fill="#3F9D36"/>
<path d="M15.7358 4.9211V15.619C15.7358 15.619 6.62476 10.27 6.62476 4.9211C6.62476 3.61596 7.10476 2.36425 7.95909 1.44138C8.81342 0.51851 9.97201 0 11.1802 0C12.3884 0 13.5472 0.51851 14.4015 1.44138C15.2558 2.36425 15.7358 3.61596 15.7358 4.9211Z" fill="#2793D1"/>
<path d="M15.7355 4.66688V15.619C15.7355 15.619 26.1481 10.1429 26.1481 4.66688C26.051 3.39843 25.4604 2.2124 24.4947 1.34679C23.529 0.481178 22.2599 0 20.9419 0C19.6239 0 18.3546 0.481178 17.3889 1.34679C16.4232 2.2124 15.8326 3.39843 15.7355 4.66688Z" fill="#1B83BF"/>
<path d="M25.1579 21.4039L15.7355 15.7736C15.7355 15.7736 25.4295 9.63657 30.1543 12.4517C31.3029 13.1386 32.1414 14.2705 32.4852 15.5983C32.8289 16.9261 32.6497 18.341 31.9871 19.5319C31.3246 20.7227 30.2329 21.592 28.9522 21.9484C27.6715 22.3048 26.3065 22.119 25.1579 21.4321V21.4039Z" fill="#3F9D36"/>
<path d="M25.1917 20.9337L15.7384 15.6184C15.7384 15.6184 15.466 26.754 20.179 29.4116C21.3216 29.974 22.6414 30.0887 23.8679 29.7323C25.0944 29.3759 26.1347 28.5754 26.7756 27.4948C27.4166 26.4142 27.6097 25.1354 27.3152 23.9205C27.0207 22.7055 26.2609 21.6464 25.1917 20.9603V20.9337Z" fill="#2B8635"/>
<path d="M6.74699 20.8875L17.0338 15.6184C17.0338 15.6184 17.3304 26.6572 12.1721 29.2917C11.5531 29.6083 10.8699 29.8134 10.1617 29.8953C9.4535 29.9773 8.73409 29.9346 8.04451 29.7694C6.65184 29.4359 5.46539 28.6244 4.74598 27.5134C4.02657 26.4024 3.83313 25.0831 4.2084 23.8454C4.58367 22.6078 5.49687 21.5532 6.74699 20.9139V20.8875Z" fill="#F9CF11"/>
<path d="M7.61435 21.4039L17.0368 15.7736C17.0368 15.7736 7.34273 9.63657 2.61789 12.4517C1.46921 13.1386 0.630879 14.2705 0.287141 15.5983C-0.0565962 16.9261 0.122452 18.341 0.785013 19.5319C1.44757 20.7227 2.5394 21.592 3.82014 21.9484C5.10088 22.3048 6.46567 22.119 7.61435 21.4321V21.4039Z" fill="#F1B40B"/>
<path d="M68.4056 24.6334C67.9428 29.3442 66.2652 30.4188 61.2903 29.7576V27.0027C63.5463 27.2231 64.0091 26.5343 64.1827 24.5232L65.3974 13.5036C65.4474 13.0164 65.6849 12.564 66.064 12.2335C66.4431 11.9029 66.9371 11.7174 67.4511 11.7129H76.1283C76.6806 11.7129 77.2102 11.922 77.6007 12.294C77.9913 12.666 78.2109 13.1704 78.2109 13.6965V27.8015C78.2109 28.3276 77.9913 28.8321 77.6007 29.2041C77.2102 29.576 76.6806 29.785 76.1283 29.785H74.1904V15.1565H68.9841L68.0875 24.5784L68.4056 24.6334Z" fill="white"/>
<path d="M95.4242 16.0804H87.1366V19.5056H94.3617L93.4585 22.7764H87.1898V26.6396H96.1148L95.0788 29.9362H85.3303C84.8231 29.9362 84.3367 29.7407 83.978 29.393C83.6194 29.0452 83.4177 28.5736 83.4177 28.0818V14.8699C83.4177 14.3781 83.6194 13.9065 83.978 13.5587C84.3367 13.211 84.8231 13.0156 85.3303 13.0156H96.4336L95.4773 16.1834L95.4242 16.0804Z" fill="white"/>
<path d="M130.667 15.1245H122.329V18.8131H129.598L128.636 22.2247H122.329V26.385H131.335L130.293 29.9351H120.484C120.232 29.9351 119.982 29.8834 119.748 29.783C119.515 29.6827 119.302 29.5356 119.124 29.3502C118.945 29.1647 118.803 28.9446 118.707 28.7023C118.61 28.4601 118.56 28.2004 118.56 27.9382V13.7099C118.56 13.1803 118.763 12.6723 119.124 12.2978C119.485 11.9233 119.974 11.7129 120.484 11.7129H131.576L130.587 15.1245H130.667Z" fill="white"/>
<path d="M104.244 22.2335V26.3878H108.568C108.848 26.4149 109.13 26.3835 109.397 26.2955C109.663 26.2075 109.909 26.0649 110.116 25.877C110.324 25.689 110.49 25.4599 110.603 25.2044C110.716 24.9489 110.773 24.6728 110.772 24.3938C110.801 24.0504 110.741 23.7054 110.6 23.3908C110.458 23.0761 110.239 22.8019 109.963 22.5936C109.489 22.3244 108.946 22.1992 108.401 22.2335H104.244ZM104.244 14.922V19.0485H107.815C108.091 19.0842 108.373 19.0606 108.639 18.9792C108.906 18.8979 109.152 18.7608 109.361 18.5771C109.57 18.3934 109.737 18.1674 109.85 17.9143C109.963 17.6612 110.021 17.387 110.019 17.11C110.044 16.8163 110.005 16.5206 109.903 16.2437C109.801 15.9668 109.64 15.7151 109.43 15.5067C109.22 15.2982 108.967 15.1379 108.688 15.0369C108.409 14.9359 108.111 14.8967 107.815 14.922H104.244ZM112.027 20.461C112.838 20.7833 113.526 21.3492 113.996 22.0792C114.467 22.8092 114.695 23.6669 114.65 24.5323C114.678 25.2791 114.544 26.0232 114.257 26.714C113.97 27.4049 113.537 28.0262 112.986 28.5359C112.436 29.0456 111.781 29.4317 111.067 29.668C110.353 29.9042 109.596 29.9852 108.847 29.9051H102.347C101.814 29.9051 101.303 29.6951 100.926 29.3211C100.55 28.9471 100.338 28.4398 100.338 27.911V13.7311C100.338 13.2023 100.55 12.6951 100.926 12.3212C101.303 11.9472 101.814 11.7372 102.347 11.7372H108.122C108.866 11.6656 109.617 11.7527 110.324 11.9927C111.031 12.2328 111.679 12.6202 112.223 13.129C112.767 13.6378 113.196 14.2564 113.479 14.943C113.763 15.6295 113.896 16.3684 113.869 17.11C113.876 17.7783 113.711 18.4373 113.389 19.024C113.066 19.6108 112.598 20.1055 112.027 20.461Z" fill="white"/>
<path d="M143.46 21.4496C143.844 21.4287 144.22 21.3288 144.566 21.1559C144.912 20.983 145.22 20.7406 145.472 20.443C145.725 20.1455 145.916 19.7991 146.035 19.4241C146.154 19.0492 146.198 18.6535 146.165 18.2607C146.215 17.8674 146.183 17.4677 146.07 17.0884C145.957 16.7092 145.765 16.3592 145.509 16.0622C145.253 15.7652 144.937 15.5281 144.584 15.3668C144.23 15.2055 143.847 15.1238 143.46 15.1271H139.214V21.4496H143.46ZM135.481 27.9385V13.7128C135.481 13.4506 135.531 13.1911 135.629 12.9488C135.727 12.7066 135.871 12.4865 136.051 12.3011C136.232 12.1157 136.447 11.9685 136.683 11.8682C136.92 11.7678 137.173 11.7162 137.429 11.7162H143.46C144.311 11.688 145.157 11.8414 145.946 12.1664C146.736 12.4913 147.451 12.9809 148.046 13.604C148.641 14.2271 149.103 14.9701 149.403 15.786C149.703 16.602 149.835 17.473 149.79 18.3438C149.821 19.2018 149.677 20.0571 149.369 20.8557C149.062 21.6542 148.596 22.3786 148.001 22.9832C147.406 23.5877 146.695 24.0592 145.914 24.368C145.132 24.6768 144.297 24.8162 143.46 24.7772H139.295V29.9351H137.429C136.912 29.9351 136.417 29.7247 136.051 29.3503C135.686 28.9759 135.481 28.4681 135.481 27.9385Z" fill="white"/>
<path d="M44.4772 27.9166V13.7037C44.4772 13.1757 44.6804 12.6694 45.0422 12.296C45.4039 11.9226 45.8945 11.7129 46.4061 11.7129H48.1476V18.9575H51.0142L55.4614 11.7129H59.6676L53.9612 20.5889L59.9891 29.9351H55.917L51.1213 22.4968H48.1476V29.9351H46.299C45.7849 29.9278 45.2944 29.712 44.9334 29.3342C44.5724 28.9565 44.3701 28.4472 44.3701 27.9166H44.4772Z" fill="white"/>
</svg>
