<svg width="47" height="47" viewBox="0 0 47 47" fill="none" xmlns="http://www.w3.org/2000/svg">
<path id="Vector" d="M10.2497 3.11088L10.2811 3.1127C10.5455 3.12808 10.7961 3.23578 10.9892 3.41693L10.9972 3.42442L11.0049 3.43225L18.3902 10.9937L18.4322 11.0368L18.4629 11.0886L18.0325 11.343C18.4629 11.0886 18.4631 11.0889 18.4632 11.0892L18.4636 11.0898L18.4643 11.0911L18.4658 11.0937L18.469 11.0992L18.4757 11.1115C18.4803 11.1203 18.4853 11.1302 18.4904 11.1413C18.5006 11.1633 18.5116 11.1903 18.5216 11.2218C18.5418 11.2848 18.559 11.3681 18.5574 11.4667C18.5541 11.6789 18.4655 11.8988 18.2726 12.0919L13.7627 16.6067L13.7567 16.6128L13.7505 16.6186L13.1431 17.1865L13.4296 18.0002L13.4331 18.0093L13.4501 18.0532C13.4654 18.0926 13.4888 18.1519 13.5204 18.2294C13.5835 18.3845 13.6792 18.6124 13.8078 18.8995C14.065 19.4741 14.4536 20.2849 14.9765 21.2241C16.0225 23.103 17.5971 25.4796 19.7208 27.5088L20.1054 27.8376L20.1117 27.843L20.1178 27.8486C22.1768 29.7306 24.426 31.191 26.1652 32.1823C27.0337 32.6772 27.7723 33.0536 28.2925 33.3058C28.5526 33.4318 28.7579 33.5267 28.8974 33.5898C28.9672 33.6213 29.0204 33.6449 29.0559 33.6603L29.0954 33.6775L29.1048 33.6816L29.1069 33.6824L29.1071 33.6826L10.2497 3.11088ZM10.2497 3.11088L10.2184 3.113M10.2497 3.11088L10.2184 3.113M10.2184 3.113C9.95759 3.13063 9.70721 3.2383 9.51495 3.42046L9.50815 3.42691L9.50159 3.4336L4.03275 9.01864L4.03207 9.01934L3.93478 9.11831C3.52245 9.47994 3.27402 9.98862 3.16339 10.4922C3.05181 11 3.06903 11.5526 3.24422 12.0236C4.62885 16.0112 8.38973 24.1838 15.5915 31.3954L15.5916 31.3955C22.7454 38.5554 30.7627 42.0787 34.8748 43.6974L34.8867 43.702L34.8987 43.7061C35.4836 43.9026 36.0528 43.9694 36.6086 43.8691C37.1662 43.7685 37.6736 43.5063 38.1439 43.102L38.1583 43.0896L38.1717 43.0762L43.6961 37.5457C43.6964 37.5454 43.6967 37.5451 43.697 37.5449C43.7492 37.4929 43.7702 37.4738 43.7925 37.4536C43.8106 37.4372 43.8295 37.42 43.8667 37.3837C43.8894 37.3616 43.9334 37.3182 43.9721 37.2624C44.0136 37.2028 44.0761 37.091 44.0761 36.9385C44.0761 36.7859 44.0136 36.6742 43.9721 36.6145C43.9334 36.5588 43.8894 36.5153 43.8667 36.4932C43.8295 36.457 43.8106 36.4398 43.7925 36.4234C43.7702 36.4031 43.7492 36.3841 43.697 36.3321C43.6967 36.3318 43.6964 36.3315 43.6961 36.3313L36.312 28.9353L36.3108 28.9342C36.2943 28.9177 36.276 28.8992 36.2572 28.8801C36.209 28.8314 36.1566 28.7784 36.1166 28.7425L36.1138 28.7399C36.0668 28.6977 35.9101 28.5569 35.6767 28.5569C35.4433 28.5569 35.2867 28.6977 35.2397 28.7399L35.2368 28.7425C35.1968 28.7784 35.1444 28.8314 35.0963 28.8801C35.0774 28.8992 35.0592 28.9177 35.0426 28.9342L35.0415 28.9353M10.2184 3.113L35.0415 28.9353M35.0415 28.9353L29.93 34.0541L35.0415 28.9353ZM7.82593 1.40606L7.873 1.3825L7.91413 1.34966C8.60672 0.796581 9.42814 0.500537 10.2499 0.500001C11.1018 0.508158 11.9256 0.806509 12.5856 1.34607L12.6274 1.38019L12.6754 1.40464L12.7178 1.42618L20.0376 9.09319L20.0478 9.10394L20.0587 9.11406C21.4413 10.3998 21.4284 12.5977 20.1032 13.9243L16.4953 17.5362L16.2543 17.7775L16.391 18.09C16.9551 19.379 18.4952 22.6969 21.5203 25.5885L21.5226 25.5906C23.7454 27.6891 26.2786 29.4313 29.0326 30.7559L29.3523 30.9097L29.6031 30.6587L33.2107 27.047C33.2108 27.0469 33.2108 27.0469 33.2109 27.0468C33.2109 27.0468 33.2109 27.0468 33.2109 27.0468C34.4932 25.7649 36.7779 25.7474 38.0859 26.9933L38.1063 27.0334L38.1423 27.1043L38.1984 27.1606L45.526 34.4963C46.8247 35.7963 46.8247 38.077 45.526 39.3771L39.8462 45.0631C39.0671 45.7305 38.1296 46.186 37.1237 46.3857C36.1118 46.5866 35.0652 46.5219 34.0858 46.1977L34.0093 46.1724H33.9673C29.7284 44.5076 21.3058 40.7775 13.7627 33.2261C6.23883 25.6939 2.36336 17.3639 0.831246 13.0101C0.830403 12.9981 0.829092 12.9852 0.827138 12.9716C0.822626 12.9403 0.814228 12.9021 0.798371 12.8605C0.457846 11.9026 0.407546 10.8653 0.653904 9.87875C0.907023 8.86515 1.39589 7.9264 2.1334 7.25599L2.14505 7.24539L2.15602 7.23409L7.7903 1.4239L7.82593 1.40606Z" fill="#FECC00" stroke="#2F3135"/>
</svg>
