<svg width="186" height="36" viewBox="0 0 186 36" fill="none" xmlns="http://www.w3.org/2000/svg">
<path d="M36.6571 27.4154C36.6571 32.1231 32.8556 36 27.968 36H8.96062C3.80147 36 0 32.1231 0 27.4154V8.86154C0 3.6 3.80147 0 8.96062 0H27.968C32.8556 0 36.6571 3.87692 36.6571 8.58461V27.4154Z" fill="#FECC00"/>
<path d="M35.2987 27.6923C35.2987 31.5692 32.0403 34.8923 27.9673 34.8923H8.68835C4.61534 34.8923 1.35693 31.5692 1.35693 27.6923V8.58459C1.35693 4.43074 4.61534 1.10767 8.68835 1.10767H27.9673C32.0403 1.10767 35.2987 4.43074 35.2987 8.58459V27.6923Z" fill="#2B2724"/>
<path d="M27.4241 25.4769C27.4241 26.5846 27.4241 27.4154 26.881 27.9692C26.338 28.8 25.5233 29.0769 24.7087 29.0769C23.6226 29.0769 23.0795 28.8 22.5365 28.2461C21.9934 27.4154 21.9934 26.5846 21.9934 25.4769V17.4461C21.9934 16.8923 22.2649 16.6154 22.808 16.6154H24.4372C25.5234 16.6154 26.0664 16.8923 26.881 17.7231C27.4241 18.2769 27.4241 19.3846 27.4241 20.4923V25.4769ZM28.5102 16.6154C27.4241 15.7846 26.6095 15.5077 24.9803 15.5077H21.9934V12.4615C21.9934 11.6307 22.5365 11.0769 23.8941 11.0769H28.7818V9.69228H19.2781V15.5077H16.8343V11.9077C16.8343 9.96921 15.7481 8.58459 14.662 7.4769C13.3043 6.36921 11.132 6.09229 9.50284 6.09229L7.87363 6.92305C10.3174 6.92305 11.6751 7.19998 12.7612 8.30767C13.8474 9.13844 14.1189 10.8 14.1189 12.1846V14.6769C14.1189 15.2307 13.8474 15.5077 13.3043 15.5077H7.33057V16.6154H13.3043C13.5759 16.6154 14.1189 16.8923 14.1189 17.4461V21.0461C14.1189 22.4307 13.8474 24.0923 12.7612 24.9231C11.6751 25.7538 10.589 26.3077 7.6021 26.5846L9.50284 27.4154C11.132 27.4154 13.0328 27.1384 14.3905 25.7538C15.4766 24.9231 16.8343 23.5384 16.8343 21.3231V16.6154H18.4635C19.0065 16.6154 19.2781 16.6154 19.2781 17.4461V24.6461C19.2781 26.3077 19.8211 27.6923 20.6357 28.8C21.7219 29.6307 23.0795 30.4615 24.7087 30.4615C26.338 30.4615 27.9672 29.6307 28.7818 28.5231C29.5964 27.4154 29.8679 26.3077 29.8679 24.9231V20.7692C29.8679 19.3846 29.8679 17.7231 28.5102 16.6154Z" fill="#FECC00"/>
<path d="M55.9353 4.70764C53.763 2.76918 50.7761 2.21533 48.3323 2.21533L46.1601 3.0461C49.69 3.32302 51.5907 3.59995 53.4915 5.26149C54.8491 6.36918 55.3922 9.13841 55.3922 11.0769V15.5076C55.3922 16.3384 54.8491 16.6153 54.0345 16.6153H45.3455V17.723H54.0345C54.8491 17.723 55.3922 17.9999 55.3922 18.8307V24.6461C55.3922 27.1384 55.1207 29.0769 53.4915 30.4615C52.1338 31.5692 50.2331 32.3999 45.8885 32.6769L48.3323 33.5076C50.7761 33.5076 53.4915 32.9538 55.3922 31.2923C57.2929 29.9076 58.9221 27.6923 58.9221 24.6461V11.0769C58.9221 8.03072 57.5645 5.81533 55.9353 4.70764Z" fill="white"/>
<path d="M183.556 19.3845C182.742 18.2768 181.655 17.723 180.026 17.723C181.112 17.4461 182.199 16.8922 183.013 15.7845L184.914 11.3538H183.013L181.112 15.2307C180.569 16.3384 179.483 17.4461 177.854 17.4461H177.039C176.496 17.4461 176.496 17.1691 176.496 16.6153V11.3538H174.052V24.3691H176.496V18.8307C176.496 18.5538 176.768 18.2768 177.311 18.2768H178.126C180.026 18.2768 180.569 19.1076 181.112 19.9384L183.285 24.3691H186L183.556 19.3845Z" fill="white"/>
<path d="M71.9557 19.3845C71.1411 18.2768 70.055 17.723 68.4258 17.723C69.7834 17.4461 70.8696 16.8922 71.4126 15.7845L73.5849 11.3538H71.4126L69.7834 15.2307C69.2404 16.3384 68.1542 17.4461 66.2535 17.4461H65.7104C65.1674 17.4461 65.1674 17.1691 65.1674 16.6153V11.3538H62.452V24.3691H65.1674V18.8307C65.1674 18.5538 65.1674 18.2768 65.7104 18.2768H66.7966C68.4258 18.2768 69.2404 19.1076 69.7834 19.9384L71.9557 24.3691H74.3995L71.9557 19.3845Z" fill="white"/>
<path d="M98.023 11.3538V21.5999C98.023 22.1538 97.48 22.7076 96.6654 23.2615C95.8508 23.2615 95.3077 23.5384 94.2216 23.5384C92.0493 23.5384 90.9631 22.4307 90.9631 20.2153V11.3538H88.2478V19.9384C88.2478 21.323 88.7909 22.7076 90.4201 23.8153C91.2347 24.3691 92.3208 24.6461 93.95 24.6461C96.1223 24.6461 96.6654 24.3691 98.023 23.5384C98.2946 23.2615 98.8376 23.2615 99.1092 24.0922C99.3807 24.6461 100.195 24.3691 100.467 24.3691V11.3538H98.023Z" fill="white"/>
<path d="M118.66 11.3539C118.117 11.6309 117.573 11.9078 117.302 12.4616L113.5 17.4462C112.686 18.5539 111.871 18.5539 111.057 17.4462L105.897 11.9078C105.083 11.3539 105.083 11.3539 103.725 11.3539V24.3693H105.083V15.5078C105.083 15.2309 105.354 14.9539 105.354 15.2309L109.427 19.3847C111.057 21.0462 112.686 20.4924 113.5 19.3847L116.759 14.9539C117.03 14.677 117.302 14.677 117.302 15.2309V24.3693H120.017V11.3539C119.474 11.077 118.931 11.077 118.66 11.3539Z" fill="white"/>
<path d="M149.614 23.8154C147.442 23.8154 147.171 23.2615 146.627 22.7077C146.084 21.8769 146.084 21.3231 146.084 19.6615C146.084 18 146.084 17.4461 146.627 16.8923C147.171 16.3384 147.714 15.7846 149.614 15.7846C150.972 15.7846 152.058 15.7846 152.873 16.6154V22.4307C152.33 23.5384 150.972 23.8154 149.614 23.8154ZM154.23 12.4615C153.416 11.6308 152.33 11.0769 149.614 11.0769C149.071 11.0769 146.627 11.0769 145.813 11.6308C145.27 11.9077 144.998 11.9077 144.184 12.4615L144.727 13.2923C145.27 12.7384 145.813 12.4615 146.356 12.4615C147.171 11.9077 148.257 12.1846 149.343 12.1846C151.244 12.1846 152.058 12.7384 152.601 13.2923C152.873 14.1231 152.873 14.4 152.873 15.2307V15.5077C151.515 14.9538 150.972 14.9538 149.071 14.9538C147.171 14.9538 146.084 15.2307 145.27 15.7846C143.912 16.6154 143.641 17.7231 143.641 19.6615V19.9384C143.641 21.8769 143.912 22.9846 145.27 23.8154C146.356 24.6461 147.171 24.6461 149.614 24.6461C151.244 24.6461 152.058 24.3692 152.873 23.8154C153.687 23.2615 153.687 24.3692 155.045 24.3692H155.317V15.5077C155.317 14.1231 155.045 13.2923 154.23 12.4615Z" fill="white"/>
<path d="M168.35 11.3538V16.3384C168.35 16.8922 168.079 17.1691 167.536 17.1691H161.833C161.29 17.1691 161.019 16.8922 161.019 16.3384V11.3538H158.575V24.3691H161.019V18.8307C161.019 18.2768 161.29 17.9999 162.105 17.9999H167.536C168.079 17.9999 168.35 18.2768 168.35 19.1076V24.3691H170.794V11.3538H168.35Z" fill="white"/>
<path d="M137.395 26.0307C137.395 27.6922 137.395 28.7999 136.852 29.9076C136.038 31.0153 134.68 31.846 133.322 31.846C131.693 31.846 130.607 31.2922 129.792 30.1845C129.249 29.0768 128.978 27.9691 128.978 26.3076V13.2922C128.978 12.7383 129.249 12.1845 130.064 12.1845H133.051C134.68 12.1845 135.766 12.7383 136.581 13.846C137.395 14.6768 137.395 16.3383 137.395 17.723V26.0307ZM138.753 12.7383C137.124 11.6306 135.766 11.3537 133.322 11.3537H128.978V5.26142C128.978 4.43065 129.249 3.59988 130.336 3.59988H139.296V2.49219H130.607H125.448V11.3537H123.276V12.1845H123.819C124.905 12.1845 125.448 12.4614 125.448 13.5691V24.3691C125.448 27.1383 125.719 28.7999 126.806 29.9076C128.163 31.5691 130.336 32.6768 133.322 32.6768C135.766 32.6768 137.938 31.5691 139.296 30.1845C140.382 28.7999 140.925 27.1383 140.925 24.646V18.8307C140.925 16.6153 140.654 14.3999 138.753 12.7383Z" fill="white"/>
<path d="M85.804 22.4307C84.9894 23.5384 83.6317 23.8154 82.0025 23.8154C80.1017 23.8154 79.2871 23.2615 79.0156 22.7077C78.4725 21.8769 78.4725 21.3231 78.4725 19.6615V16.0615C78.4725 14.4 78.4725 13.8461 79.0156 13.0154C79.2871 12.4615 80.1017 12.1846 82.0025 12.1846C83.3602 12.1846 84.7178 12.1846 85.804 13.0154L86.347 12.1846C84.9894 11.0769 83.6317 11.0769 81.731 11.0769C79.8302 11.0769 78.201 11.3538 77.3864 11.9077C76.3003 13.0154 75.7572 13.8461 75.7572 15.7846V19.9384C75.7572 21.8769 76.3003 22.9846 77.3864 23.8154C78.201 24.3692 79.8302 24.6461 81.731 24.6461C83.3602 24.6461 85.2609 24.6461 86.6186 23.2615L85.804 22.4307Z" fill="white"/>
</svg>
